<svg width="20" height="20" viewBox="0 0 20 20" fill="none" xmlns="http://www.w3.org/2000/svg">
<path d="M7.86026 0.145613C7.97152 0.183465 8.08022 0.228486 8.18563 0.280389L9.45409 0.904879C9.7983 1.07436 10.2017 1.07436 10.5459 0.904879L11.8144 0.280389C13.1617 -0.38297 14.7917 0.17152 15.455 1.51887L15.5277 1.67938L15.5898 1.84426L16.0452 3.18272C16.1688 3.54599 16.454 3.83126 16.8172 3.95483L18.1557 4.41015C19.5775 4.8938 20.338 6.43847 19.8544 7.86026C19.8165 7.97152 19.7715 8.08022 19.7196 8.18563L19.0951 9.45409C18.9256 9.7983 18.9256 10.2017 19.0951 10.5459L19.7196 11.8144C20.383 13.1617 19.8285 14.7917 18.4811 15.455C18.3757 15.507 18.267 15.552 18.1557 15.5898L16.8172 16.0452C16.454 16.1688 16.1688 16.454 16.0452 16.8172L15.5898 18.1557C15.1062 19.5775 13.5615 20.338 12.1397 19.8544C12.0285 19.8165 11.9198 19.7715 11.8144 19.7196L10.5459 19.0951C10.2017 18.9256 9.7983 18.9256 9.45409 19.0951L8.18563 19.7196C6.83829 20.383 5.20828 19.8285 4.54492 18.4811C4.49301 18.3757 4.44799 18.267 4.41015 18.1557L3.95483 16.8172C3.83126 16.454 3.54599 16.1688 3.18272 16.0452L1.84426 15.5898C0.422463 15.1062 -0.338039 13.5615 0.145613 12.1397C0.183465 12.0285 0.228486 11.9198 0.280389 11.8144L0.904879 10.5459C1.07436 10.2017 1.07436 9.7983 0.904879 9.45409L0.280389 8.18563C-0.38297 6.83829 0.17152 5.20828 1.51887 4.54492C1.6243 4.49301 1.733 4.44799 1.84426 4.41015L3.18272 3.95483C3.54599 3.83126 3.83126 3.54599 3.95483 3.18272L4.41015 1.84426C4.8938 0.422463 6.43847 -0.338039 7.86026 0.145613ZM13.4309 7.00355L8.07221 12.3622L6.12003 10.0197C5.85783 9.70495 5.3902 9.66243 5.07554 9.92467C4.76089 10.1869 4.71838 10.6545 4.98059 10.9692L7.45264 13.9356C7.73182 14.2706 8.23843 14.2937 8.54675 13.9853L14.4797 8.05234C14.7693 7.76273 14.7693 7.29317 14.4797 7.00355C14.19 6.71394 13.7205 6.71394 13.4309 7.00355Z" fill="#00C000"/>
</svg>
