<svg width="28" height="32" viewBox="0 0 28 32" fill="none" xmlns="http://www.w3.org/2000/svg">
<g clip-path="url(#clip0_31_980)">
<path d="M3.41602 31.2658V0.734253H17.4316L24.6043 7.90044V31.2658H3.41602Z" fill="white"/>
<path d="M17.1278 1.46851L23.8699 8.20452V30.5309H4.15009V1.46787H17.1278M17.7356 -0.000610352H2.68188V31.9994H25.3378V7.5951L17.7356 -0.000610352Z" fill="black"/>
<path d="M24.604 31.2658H3.41577V0.734253H17.4314L17.5975 0.900375V7.74074H24.4434L24.604 7.90044V31.2658Z" fill="white"/>
<path d="M16.8633 1.46851V8.47472H23.8695V30.5313H4.14963V1.46824H16.863M17.7349 -0.000244141H2.68115V31.9998H25.337V7.59547L24.7469 7.00587H18.3308V0.595775L17.7349 -0.000244141Z" fill="black"/>
<path d="M22.3699 6.58618H18.8208V2.99915L22.3699 6.46044V6.58618Z" fill="black"/>
<path d="M19.5551 4.74102L20.6941 5.85193H19.5551V4.74102ZM19.0961 2.24194H18.0867V7.32041H23.1039V6.15095L19.0961 2.24194Z" fill="black"/>
<path d="M27.2879 24.6429H0.731689V13.9221L2.08517 12.5692V14.2717H25.935V12.5692L27.2879 13.9221V24.6429Z" fill="#ED1C24"/>
<path d="M26.5316 14.0093L26.6919 14.1696V24.047H1.32849V14.1696L1.48883 14.0093V14.8685H26.531V14.0093M25.338 11.1288V13.6754H2.68114V11.1288L0.134521 13.6754V25.2397H27.8842V13.6754L25.338 11.1288Z" fill="#ED1C24"/>
<path d="M4.28955 23.4661V15.83H7.08554C7.50063 15.83 7.89614 15.873 8.27207 15.9592C8.648 16.0375 8.97694 16.1785 9.25889 16.3821C9.54084 16.5779 9.76404 16.8403 9.92851 17.1692C10.1008 17.4903 10.187 17.8897 10.187 18.3675C10.187 18.8374 10.1008 19.2407 9.92851 19.5775C9.76404 19.9143 9.54084 20.1923 9.25889 20.4116C8.97694 20.6231 8.65192 20.7836 8.28382 20.8933C7.91572 20.9951 7.53195 21.046 7.13253 21.046H6.31018V23.4661H4.28955ZM6.31018 19.4483H7.03855C7.43797 19.4483 7.73167 19.3543 7.91963 19.1663C8.11543 18.9784 8.21333 18.7121 8.21333 18.3675C8.21333 18.0229 8.1076 17.7801 7.89614 17.6391C7.68468 17.4981 7.38315 17.4277 6.99155 17.4277H6.31018V19.4483Z" fill="white"/>
<path d="M11.4321 23.4661V15.83H13.6877C14.2673 15.83 14.7959 15.9004 15.2737 16.0414C15.7592 16.1824 16.1743 16.4056 16.5189 16.711C16.8635 17.0165 17.1298 17.4081 17.3178 17.8858C17.5136 18.3636 17.6115 18.9392 17.6115 19.6128C17.6115 20.2863 17.5175 20.8659 17.3295 21.3514C17.1416 21.837 16.8753 22.2364 16.5307 22.5497C16.1939 22.863 15.7906 23.094 15.3207 23.2428C14.8586 23.3916 14.3534 23.4661 13.8052 23.4661H11.4321ZM13.4528 21.8448H13.5702C13.8444 21.8448 14.1028 21.8135 14.3456 21.7509C14.5884 21.6804 14.7959 21.5629 14.9682 21.3984C15.1484 21.234 15.2893 21.0068 15.3912 20.7171C15.493 20.4273 15.5439 20.0592 15.5439 19.6128C15.5439 19.1663 15.493 18.8022 15.3912 18.5202C15.2893 18.2383 15.1484 18.019 14.9682 17.8623C14.7959 17.7057 14.5884 17.6 14.3456 17.5451C14.1028 17.4825 13.8444 17.4512 13.5702 17.4512H13.4528V21.8448Z" fill="white"/>
<path d="M18.9746 23.4661V15.83H23.9557V17.5216H20.9952V18.9784H23.5328V20.6701H20.9952V23.4661H18.9746Z" fill="white"/>
</g>
<defs>
<clipPath id="clip0_31_980">
<rect width="28" height="32" fill="white"/>
</clipPath>
</defs>
</svg>
