<svg width="37" height="27" viewBox="0 0 37 27" fill="none" xmlns="http://www.w3.org/2000/svg">
<path d="M9.07624 26.888C7.57224 26.888 6.25624 26.606 5.12824 26.042C4.00024 25.4153 3.09158 24.6007 2.40224 23.598C1.77558 22.5953 1.27424 21.4047 0.898242 20.026C0.522242 18.6473 0.334243 17.206 0.334243 15.702C0.334243 12.6313 1.11758 9.74866 2.68424 7.054C4.31358 4.35933 6.82024 2.22866 10.2042 0.661995L11.0502 2.354C9.29558 3.16866 7.72891 4.35933 6.35024 5.926C5.03424 7.43 4.25091 9.028 4.00024 10.72C3.62424 12.036 3.59291 13.3207 3.90624 14.574C5.28491 13.07 7.13358 12.318 9.45224 12.318C11.5829 12.318 13.3376 12.976 14.7162 14.292C16.0949 15.5453 16.7842 17.3 16.7842 19.556C16.7842 21.7493 16.0636 23.5353 14.6222 24.914C13.1809 26.23 11.3322 26.888 9.07624 26.888ZM28.4402 26.888C26.9362 26.888 25.6202 26.606 24.4922 26.042C23.3642 25.4153 22.4556 24.6007 21.7662 23.598C21.1396 22.5953 20.6382 21.4047 20.2622 20.026C19.8862 18.6473 19.6982 17.206 19.6982 15.702C19.6982 12.6313 20.4816 9.74866 22.0482 7.054C23.6776 4.35933 26.1842 2.22866 29.5682 0.661995L30.4142 2.354C28.6596 3.16866 27.0929 4.35933 25.7142 5.926C24.3982 7.43 23.6149 9.028 23.3642 10.72C22.9882 12.036 22.9569 13.3207 23.2702 14.574C24.6489 13.07 26.4976 12.318 28.8162 12.318C30.9469 12.318 32.7016 12.976 34.0802 14.292C35.4589 15.5453 36.1482 17.3 36.1482 19.556C36.1482 21.7493 35.4276 23.5353 33.9862 24.914C32.5449 26.23 30.6962 26.888 28.4402 26.888Z" fill="#FF0000"/>
</svg>
